<?xml version="1.0" encoding="UTF-8" ?>
<!DOCTYPE svg PUBLIC "-//W3C//DTD SVG 1.1//EN" "http://www.w3.org/Graphics/SVG/1.1/DTD/svg11.dtd">
<svg width="938pt" height="937pt" viewBox="0 0 938 937" version="1.1" xmlns="http://www.w3.org/2000/svg">
<g id="#fdfdfdff">
</g>
<g id="#1c1c1cff">
<path fill="#1c1c1c" opacity="1.00" d=" M 407.87 343.62 C 418.37 339.89 428.28 334.66 438.92 331.32 C 438.56 338.52 435.55 346.73 428.13 349.26 C 389.79 364.59 351.37 379.73 313.18 395.44 C 301.19 400.15 289.54 405.77 277.22 409.62 C 277.80 405.33 278.56 401.04 279.97 396.94 C 281.35 392.56 286.72 392.27 290.21 390.34 C 329.41 374.71 368.70 359.31 407.87 343.62 Z" />
<path fill="#1c1c1c" opacity="1.00" d=" M 708.94 340.93 C 712.25 339.35 716.80 339.79 719.07 342.93 C 722.96 347.83 721.44 354.83 719.24 360.16 C 716.13 358.41 713.56 355.71 710.05 354.74 C 702.61 366.23 701.29 380.25 697.54 393.14 C 696.55 395.91 696.37 399.31 693.98 401.32 C 691.87 401.73 689.28 400.87 688.56 398.67 C 684.43 388.32 683.57 376.20 676.00 367.51 C 672.74 367.80 669.11 368.99 666.17 366.97 C 662.68 364.75 662.41 359.96 663.57 356.38 C 664.71 352.90 666.59 349.09 670.06 347.48 C 675.14 346.12 679.05 350.49 681.91 354.02 C 687.27 361.25 690.48 369.82 692.97 378.41 C 694.58 368.92 696.74 359.43 700.77 350.65 C 702.66 346.85 705.01 342.89 708.94 340.93 Z" />
<path fill="#1c1c1c" opacity="1.00" d=" M 737.14 395.29 C 770.48 381.50 804.42 369.20 837.59 354.99 C 836.93 360.88 835.88 368.21 829.82 371.02 C 807.64 380.38 785.21 389.17 762.78 397.95 C 751.32 402.63 739.98 407.76 728.02 411.06 C 729.27 405.19 730.55 397.40 737.14 395.29 Z" />
<path fill="#1c1c1c" opacity="1.00" d=" M 112.49 379.47 C 115.31 374.70 117.91 369.38 122.91 366.52 C 119.05 384.26 110.60 400.81 108.23 418.93 C 107.26 426.23 106.70 433.89 108.81 441.04 C 109.74 444.79 112.98 448.34 117.06 448.25 C 122.24 447.47 125.47 442.74 127.11 438.15 C 127.99 436.87 127.98 434.22 129.96 434.29 C 133.22 443.78 130.34 454.18 125.24 462.45 C 120.48 469.81 115.72 477.41 113.77 486.07 C 110.23 501.43 110.96 517.51 113.71 532.94 C 115.54 542.04 117.81 551.72 124.33 558.71 C 130.92 566.00 143.42 567.40 150.90 560.70 C 156.25 555.58 158.99 548.51 161.93 541.88 C 169.82 522.67 178.05 503.30 190.35 486.43 C 197.87 476.60 207.14 467.82 218.33 462.32 C 222.38 460.28 227.40 459.45 231.62 461.48 C 236.75 463.67 240.41 468.10 243.57 472.53 C 248.59 479.51 251.23 487.83 255.87 495.03 C 263.30 506.42 275.91 513.69 289.08 516.31 C 305.01 519.85 321.48 515.53 336.07 509.05 C 343.80 505.78 351.00 501.44 357.98 496.83 C 348.07 488.10 337.53 478.62 324.09 476.22 C 315.40 474.43 307.12 478.64 299.43 482.09 C 301.37 469.52 304.27 455.26 315.48 447.55 C 330.03 437.76 347.56 433.27 364.86 431.68 C 387.10 430.05 409.95 431.91 430.94 439.83 C 437.07 442.42 443.22 445.34 448.26 449.78 C 450.36 451.64 452.11 454.11 452.35 456.98 C 453.45 467.24 447.88 477.93 438.86 482.94 C 428.16 489.46 416.52 494.21 405.54 500.24 C 409.00 503.66 413.33 506.01 417.55 508.37 C 434.13 517.29 454.06 520.50 472.40 515.70 C 481.78 513.40 490.74 509.28 498.43 503.43 C 500.76 501.53 503.14 499.52 504.65 496.87 C 505.61 493.39 503.38 490.13 501.82 487.19 C 496.49 478.57 490.39 470.43 485.51 461.53 C 479.25 450.84 475.21 439.07 471.30 427.37 C 470.45 424.58 469.12 421.89 468.76 418.98 C 470.04 410.24 471.37 401.35 474.70 393.11 C 481.65 397.37 487.26 403.35 492.81 409.23 C 497.09 413.98 500.68 419.36 503.56 425.06 C 499.79 425.51 495.99 425.62 492.21 425.54 C 502.07 440.02 512.13 454.92 516.62 472.09 C 524.28 497.82 511.40 527.17 488.39 540.40 C 472.42 549.63 452.95 552.55 434.95 548.56 C 417.46 545.33 401.86 535.84 388.16 524.84 C 384.74 522.03 381.19 519.34 378.16 516.10 C 362.80 527.27 346.14 536.82 328.44 543.77 C 314.38 549.23 298.85 552.02 283.90 548.93 C 269.73 546.43 256.40 538.86 247.53 527.45 C 241.18 520.23 237.36 511.32 233.20 502.77 C 231.05 498.46 228.55 493.85 224.02 491.66 C 221.68 490.98 219.47 492.44 217.46 493.43 C 209.69 498.07 202.21 503.55 196.84 510.94 C 182.17 530.84 175.47 555.03 165.13 577.19 C 161.36 585.98 152.64 592.57 143.02 593.22 C 134.74 593.73 126.53 590.06 120.78 584.19 C 109.42 573.16 104.27 557.40 101.63 542.16 C 97.69 518.40 100.75 494.21 105.48 470.81 C 98.52 464.58 95.49 455.09 95.29 445.96 C 94.54 432.68 96.98 419.43 100.80 406.76 C 103.87 397.34 107.47 388.04 112.49 379.47 M 362.76 463.89 C 369.00 470.80 376.59 476.29 384.00 481.84 C 393.28 477.96 402.01 472.84 410.03 466.79 C 395.21 460.66 378.19 459.01 362.76 463.89 Z" />
<path fill="#1c1c1c" opacity="1.00" d=" M 579.61 402.99 C 579.67 392.84 579.48 382.53 581.78 372.60 C 593.52 376.46 603.90 383.32 614.56 389.40 C 618.34 391.81 622.56 393.66 625.74 396.91 C 621.10 399.06 616.10 400.34 611.06 401.05 C 625.98 417.21 646.58 426.17 665.62 436.42 C 676.67 442.47 688.38 448.70 695.75 459.29 C 706.76 474.60 709.60 495.69 702.08 513.10 C 696.45 526.58 684.46 535.70 673.58 544.79 C 668.70 559.17 666.80 574.94 670.49 589.83 C 672.76 598.55 677.91 606.81 685.84 611.39 C 695.86 618.05 708.48 618.60 720.08 617.31 C 737.41 614.83 753.16 606.36 767.42 596.57 C 787.79 583.02 806.66 567.23 823.65 549.63 C 827.16 545.59 831.48 540.73 830.37 534.95 C 829.40 530.81 825.19 528.81 821.47 527.78 C 808.03 524.45 794.01 527.99 780.51 525.30 C 770.22 523.21 762.51 514.00 760.69 503.89 C 758.77 491.21 761.49 477.96 767.92 466.89 C 773.07 458.02 780.89 450.15 790.89 447.08 C 798.40 444.88 806.62 446.62 813.02 450.98 C 825.37 459.35 833.70 472.56 838.57 486.45 C 842.15 496.97 844.03 508.01 844.84 519.07 C 846.59 535.29 843.09 551.97 835.07 566.17 C 828.70 577.35 819.71 586.74 810.27 595.36 C 798.39 606.46 786.11 617.18 772.84 626.60 C 758.98 636.74 743.76 645.45 727.04 649.85 C 713.47 653.20 698.30 652.93 685.83 646.03 C 673.16 639.43 664.07 627.20 659.46 613.87 C 653.40 593.26 657.01 571.35 662.37 551.01 C 647.43 560.28 633.92 571.63 619.07 581.05 C 602.96 591.28 585.99 601.85 566.63 604.08 C 558.20 605.13 549.18 603.06 542.73 597.35 C 534.10 589.98 531.06 578.31 529.94 567.46 C 528.43 549.02 532.12 530.51 538.21 513.16 C 540.39 507.35 542.77 501.48 546.66 496.58 C 548.18 494.74 550.08 493.02 552.44 492.42 C 553.36 495.30 551.72 498.12 550.85 500.80 C 544.84 517.02 541.26 534.52 543.08 551.84 C 543.73 558.99 547.29 566.81 554.60 569.21 C 565.95 572.91 577.88 568.91 588.45 564.57 C 607.04 555.91 623.98 544.21 641.16 533.12 C 649.66 527.58 658.13 521.99 666.60 516.40 C 673.77 511.68 681.15 507.25 687.99 502.04 C 690.69 500.06 692.62 497.25 693.47 494.01 C 692.14 488.58 687.98 484.50 683.48 481.49 C 669.80 472.28 654.69 465.55 640.21 457.74 C 615.58 445.15 596.75 424.19 579.61 402.99 M 782.32 480.29 C 779.98 482.25 778.59 485.89 780.35 488.66 C 781.71 491.56 784.95 492.96 787.96 493.41 C 795.92 494.21 803.93 494.22 811.92 494.55 C 807.83 487.23 802.39 479.73 793.91 477.36 C 789.86 475.89 785.42 477.59 782.32 480.29 Z" />
<path fill="#1c1c1c" opacity="1.00" d=" M 204.19 391.78 C 208.21 386.10 211.07 379.57 215.88 374.48 C 223.58 377.89 230.37 382.92 237.43 387.44 C 240.10 389.53 243.99 392.00 243.31 395.93 C 241.47 405.04 236.63 413.24 231.27 420.73 C 221.85 415.18 212.93 408.82 203.91 402.67 C 200.02 409.35 196.11 416.04 192.01 422.59 C 183.91 417.62 175.80 412.60 168.20 406.86 C 165.86 405.08 163.34 402.14 164.81 399.01 C 168.16 390.79 172.97 383.25 177.20 375.46 C 182.79 378.06 187.75 381.74 193.05 384.84 C 196.83 387.04 200.61 389.26 204.19 391.78 Z" />
<path fill="#1c1c1c" opacity="1.00" d=" M 483.20 575.58 C 491.21 580.59 499.42 585.30 507.03 590.91 C 508.95 592.43 511.66 594.19 510.63 597.08 C 508.70 606.34 502.45 613.85 497.38 621.58 C 488.25 616.13 479.69 609.74 470.31 604.72 C 466.28 611.08 462.66 617.73 458.32 623.88 C 449.04 617.26 438.46 612.21 430.70 603.66 C 433.59 594.32 438.80 585.97 444.32 577.98 C 448.32 579.68 451.79 582.34 455.54 584.51 C 460.73 587.79 466.20 590.57 471.40 593.83 C 475.23 587.68 478.92 581.44 483.20 575.58 Z" />
<path fill="#1c1c1c" opacity="1.00" d=" M 591.36 631.47 C 608.14 625.05 624.69 618.07 641.38 611.42 C 640.14 615.61 639.09 619.86 638.01 624.10 C 637.86 625.47 636.29 625.68 635.33 626.27 C 623.92 631.42 612.31 636.09 600.56 640.42 C 581.67 647.74 563.29 656.41 543.95 662.52 C 545.17 657.97 546.12 653.35 547.45 648.84 C 561.97 642.75 576.81 637.48 591.36 631.47 Z" />
</g>
</svg>
